<mxfile host="app.diagrams.net" modified="2024-05-20T19:24:57.518Z" agent="Mozilla/5.0 (Macintosh; Intel Mac OS X 10_15_7) AppleWebKit/537.36 (KHTML, like Gecko) Chrome/124.0.0.0 Safari/537.36" etag="0S0f43F5QZdaFheSKNvA" version="24.4.2" type="device">
  <diagram name="Page-1" id="HVgLrzvTovPS3exnuqfp">
    <mxGraphModel dx="2156" dy="718" grid="1" gridSize="10" guides="1" tooltips="1" connect="1" arrows="1" fold="1" page="1" pageScale="1" pageWidth="850" pageHeight="1100" math="0" shadow="0">
      <root>
        <mxCell id="0" />
        <mxCell id="1" parent="0" />
        <mxCell id="lPkhHcRG2K9ddC0IiGHr-5" style="edgeStyle=orthogonalEdgeStyle;rounded=0;orthogonalLoop=1;jettySize=auto;html=1;entryX=0;entryY=0.5;entryDx=0;entryDy=0;" parent="1" source="lPkhHcRG2K9ddC0IiGHr-1" target="lPkhHcRG2K9ddC0IiGHr-4" edge="1">
          <mxGeometry relative="1" as="geometry" />
        </mxCell>
        <mxCell id="lPkhHcRG2K9ddC0IiGHr-30" value="Master Branch&amp;nbsp;&lt;div&gt;Build&lt;/div&gt;" style="edgeLabel;html=1;align=center;verticalAlign=middle;resizable=0;points=[];" parent="lPkhHcRG2K9ddC0IiGHr-5" vertex="1" connectable="0">
          <mxGeometry x="-0.1474" y="4" relative="1" as="geometry">
            <mxPoint as="offset" />
          </mxGeometry>
        </mxCell>
        <mxCell id="lPkhHcRG2K9ddC0IiGHr-34" style="edgeStyle=orthogonalEdgeStyle;rounded=0;orthogonalLoop=1;jettySize=auto;html=1;exitX=0;exitY=0.5;exitDx=0;exitDy=0;entryX=1;entryY=0.5;entryDx=0;entryDy=0;" parent="1" source="lPkhHcRG2K9ddC0IiGHr-1" target="lPkhHcRG2K9ddC0IiGHr-16" edge="1">
          <mxGeometry relative="1" as="geometry" />
        </mxCell>
        <mxCell id="lPkhHcRG2K9ddC0IiGHr-35" value="On New Merge&amp;nbsp;&lt;div&gt;Request&lt;/div&gt;" style="edgeLabel;html=1;align=center;verticalAlign=middle;resizable=0;points=[];" parent="lPkhHcRG2K9ddC0IiGHr-34" vertex="1" connectable="0">
          <mxGeometry x="0.219" y="2" relative="1" as="geometry">
            <mxPoint y="18" as="offset" />
          </mxGeometry>
        </mxCell>
        <mxCell id="lPkhHcRG2K9ddC0IiGHr-1" value="Code Repo" style="rounded=0;whiteSpace=wrap;html=1;fillColor=#d5e8d4;strokeColor=#82b366;" parent="1" vertex="1">
          <mxGeometry x="190" y="300" width="120" height="60" as="geometry" />
        </mxCell>
        <mxCell id="lPkhHcRG2K9ddC0IiGHr-36" style="edgeStyle=orthogonalEdgeStyle;rounded=0;orthogonalLoop=1;jettySize=auto;html=1;exitX=0.5;exitY=0;exitDx=0;exitDy=0;entryX=1;entryY=0.5;entryDx=0;entryDy=0;" parent="1" source="lPkhHcRG2K9ddC0IiGHr-2" target="lPkhHcRG2K9ddC0IiGHr-25" edge="1">
          <mxGeometry relative="1" as="geometry" />
        </mxCell>
        <mxCell id="lPkhHcRG2K9ddC0IiGHr-2" value="Manifest Repo" style="rounded=0;whiteSpace=wrap;html=1;fillColor=#fff2cc;strokeColor=#d6b656;" parent="1" vertex="1">
          <mxGeometry x="50" y="560" width="120" height="60" as="geometry" />
        </mxCell>
        <mxCell id="lPkhHcRG2K9ddC0IiGHr-11" style="edgeStyle=orthogonalEdgeStyle;rounded=0;orthogonalLoop=1;jettySize=auto;html=1;exitX=1;exitY=0.5;exitDx=0;exitDy=0;" parent="1" source="lPkhHcRG2K9ddC0IiGHr-3" target="lPkhHcRG2K9ddC0IiGHr-10" edge="1">
          <mxGeometry relative="1" as="geometry" />
        </mxCell>
        <mxCell id="lPkhHcRG2K9ddC0IiGHr-31" value="Feature Branch&amp;nbsp;&lt;div&gt;Build&lt;/div&gt;" style="edgeLabel;html=1;align=center;verticalAlign=middle;resizable=0;points=[];" parent="lPkhHcRG2K9ddC0IiGHr-11" vertex="1" connectable="0">
          <mxGeometry x="0.0182" y="1" relative="1" as="geometry">
            <mxPoint as="offset" />
          </mxGeometry>
        </mxCell>
        <mxCell id="lPkhHcRG2K9ddC0IiGHr-32" style="edgeStyle=orthogonalEdgeStyle;rounded=0;orthogonalLoop=1;jettySize=auto;html=1;entryX=0.5;entryY=0;entryDx=0;entryDy=0;" parent="1" source="lPkhHcRG2K9ddC0IiGHr-3" target="lPkhHcRG2K9ddC0IiGHr-1" edge="1">
          <mxGeometry relative="1" as="geometry" />
        </mxCell>
        <mxCell id="lPkhHcRG2K9ddC0IiGHr-33" value="Create Merge Request" style="edgeLabel;html=1;align=center;verticalAlign=middle;resizable=0;points=[];" parent="lPkhHcRG2K9ddC0IiGHr-32" vertex="1" connectable="0">
          <mxGeometry x="-0.3429" y="1" relative="1" as="geometry">
            <mxPoint as="offset" />
          </mxGeometry>
        </mxCell>
        <mxCell id="lPkhHcRG2K9ddC0IiGHr-3" value="Feature Branch" style="rounded=1;whiteSpace=wrap;html=1;fillColor=#d5e8d4;strokeColor=#82b366;" parent="1" vertex="1">
          <mxGeometry x="195" y="170" width="110" height="60" as="geometry" />
        </mxCell>
        <mxCell id="lPkhHcRG2K9ddC0IiGHr-4" value="Build Image with Tekton" style="ellipse;whiteSpace=wrap;html=1;fillColor=#647687;fontColor=#ffffff;strokeColor=#314354;" parent="1" vertex="1">
          <mxGeometry x="420" y="290" width="120" height="80" as="geometry" />
        </mxCell>
        <mxCell id="lPkhHcRG2K9ddC0IiGHr-10" value="Build Image with Tekton" style="ellipse;whiteSpace=wrap;html=1;fillColor=#647687;fontColor=#ffffff;strokeColor=#314354;" parent="1" vertex="1">
          <mxGeometry x="420" y="160" width="120" height="80" as="geometry" />
        </mxCell>
        <mxCell id="lPkhHcRG2K9ddC0IiGHr-26" style="edgeStyle=orthogonalEdgeStyle;rounded=0;orthogonalLoop=1;jettySize=auto;html=1;" parent="1" source="lPkhHcRG2K9ddC0IiGHr-16" target="lPkhHcRG2K9ddC0IiGHr-25" edge="1">
          <mxGeometry relative="1" as="geometry" />
        </mxCell>
        <mxCell id="fQ2BLNwEKDSht-w5h9F5-2" value="Create New Argo App" style="edgeLabel;html=1;align=center;verticalAlign=middle;resizable=0;points=[];" vertex="1" connectable="0" parent="lPkhHcRG2K9ddC0IiGHr-26">
          <mxGeometry x="-0.1714" y="-1" relative="1" as="geometry">
            <mxPoint as="offset" />
          </mxGeometry>
        </mxCell>
        <mxCell id="lPkhHcRG2K9ddC0IiGHr-16" value="Application Set Controller" style="ellipse;whiteSpace=wrap;html=1;fillColor=#dae8fc;strokeColor=#6c8ebf;" parent="1" vertex="1">
          <mxGeometry x="-100" y="290" width="120" height="80" as="geometry" />
        </mxCell>
        <mxCell id="lPkhHcRG2K9ddC0IiGHr-20" value="Ephemeral Dev env" style="rounded=1;whiteSpace=wrap;html=1;fillColor=#b0e3e6;strokeColor=#0e8088;" parent="1" vertex="1">
          <mxGeometry x="-100" y="625" width="120" height="60" as="geometry" />
        </mxCell>
        <mxCell id="lPkhHcRG2K9ddC0IiGHr-27" style="edgeStyle=orthogonalEdgeStyle;rounded=0;orthogonalLoop=1;jettySize=auto;html=1;exitX=0.5;exitY=1;exitDx=0;exitDy=0;entryX=0.5;entryY=0;entryDx=0;entryDy=0;" parent="1" source="lPkhHcRG2K9ddC0IiGHr-25" target="lPkhHcRG2K9ddC0IiGHr-20" edge="1">
          <mxGeometry relative="1" as="geometry" />
        </mxCell>
        <mxCell id="fQ2BLNwEKDSht-w5h9F5-1" value="Create New" style="edgeLabel;html=1;align=center;verticalAlign=middle;resizable=0;points=[];" vertex="1" connectable="0" parent="lPkhHcRG2K9ddC0IiGHr-27">
          <mxGeometry x="-0.1111" y="-3" relative="1" as="geometry">
            <mxPoint as="offset" />
          </mxGeometry>
        </mxCell>
        <mxCell id="lPkhHcRG2K9ddC0IiGHr-25" value="Argo Application" style="ellipse;whiteSpace=wrap;html=1;fillColor=#dae8fc;strokeColor=#6c8ebf;" parent="1" vertex="1">
          <mxGeometry x="-100" y="450" width="120" height="80" as="geometry" />
        </mxCell>
        <mxCell id="lPkhHcRG2K9ddC0IiGHr-37" value="Image Registry" style="shape=cylinder3;whiteSpace=wrap;html=1;boundedLbl=1;backgroundOutline=1;size=15;fillColor=#cdeb8b;strokeColor=#36393d;" parent="1" vertex="1">
          <mxGeometry x="740" y="220" width="60" height="80" as="geometry" />
        </mxCell>
        <mxCell id="lPkhHcRG2K9ddC0IiGHr-38" style="edgeStyle=orthogonalEdgeStyle;rounded=0;orthogonalLoop=1;jettySize=auto;html=1;entryX=0;entryY=0.5;entryDx=0;entryDy=0;entryPerimeter=0;" parent="1" source="lPkhHcRG2K9ddC0IiGHr-10" target="lPkhHcRG2K9ddC0IiGHr-37" edge="1">
          <mxGeometry relative="1" as="geometry" />
        </mxCell>
        <mxCell id="lPkhHcRG2K9ddC0IiGHr-40" value="Feature build" style="edgeLabel;html=1;align=center;verticalAlign=middle;resizable=0;points=[];" parent="lPkhHcRG2K9ddC0IiGHr-38" vertex="1" connectable="0">
          <mxGeometry x="-0.6526" y="4" relative="1" as="geometry">
            <mxPoint as="offset" />
          </mxGeometry>
        </mxCell>
        <mxCell id="lPkhHcRG2K9ddC0IiGHr-39" style="edgeStyle=orthogonalEdgeStyle;rounded=0;orthogonalLoop=1;jettySize=auto;html=1;entryX=0;entryY=0.5;entryDx=0;entryDy=0;entryPerimeter=0;" parent="1" source="lPkhHcRG2K9ddC0IiGHr-4" target="lPkhHcRG2K9ddC0IiGHr-37" edge="1">
          <mxGeometry relative="1" as="geometry" />
        </mxCell>
        <mxCell id="lPkhHcRG2K9ddC0IiGHr-41" value="Dev build" style="edgeLabel;html=1;align=center;verticalAlign=middle;resizable=0;points=[];" parent="lPkhHcRG2K9ddC0IiGHr-39" vertex="1" connectable="0">
          <mxGeometry x="-0.6571" y="-1" relative="1" as="geometry">
            <mxPoint as="offset" />
          </mxGeometry>
        </mxCell>
        <mxCell id="lPkhHcRG2K9ddC0IiGHr-42" value="&lt;h1 style=&quot;margin-top: 0px;&quot;&gt;&lt;font style=&quot;font-size: 45px;&quot;&gt;Dev Branch builds - RHDH Template flow&lt;/font&gt;&lt;/h1&gt;" style="text;html=1;whiteSpace=wrap;overflow=hidden;rounded=0;" parent="1" vertex="1">
          <mxGeometry x="-140" y="50" width="990" height="120" as="geometry" />
        </mxCell>
        <mxCell id="fQ2BLNwEKDSht-w5h9F5-4" style="edgeStyle=orthogonalEdgeStyle;rounded=0;orthogonalLoop=1;jettySize=auto;html=1;entryX=0.75;entryY=1;entryDx=0;entryDy=0;" edge="1" parent="1" source="fQ2BLNwEKDSht-w5h9F5-14" target="lPkhHcRG2K9ddC0IiGHr-1">
          <mxGeometry relative="1" as="geometry">
            <mxPoint x="460" y="430" as="sourcePoint" />
            <mxPoint x="290" y="370" as="targetPoint" />
          </mxGeometry>
        </mxCell>
        <mxCell id="fQ2BLNwEKDSht-w5h9F5-5" value="Approve Merge Request" style="edgeLabel;html=1;align=center;verticalAlign=middle;resizable=0;points=[];" vertex="1" connectable="0" parent="fQ2BLNwEKDSht-w5h9F5-4">
          <mxGeometry x="-0.0453" y="-3" relative="1" as="geometry">
            <mxPoint as="offset" />
          </mxGeometry>
        </mxCell>
        <mxCell id="fQ2BLNwEKDSht-w5h9F5-8" style="edgeStyle=orthogonalEdgeStyle;rounded=0;orthogonalLoop=1;jettySize=auto;html=1;entryX=1;entryY=0.5;entryDx=0;entryDy=0;" edge="1" parent="1" source="fQ2BLNwEKDSht-w5h9F5-6" target="lPkhHcRG2K9ddC0IiGHr-20">
          <mxGeometry relative="1" as="geometry" />
        </mxCell>
        <mxCell id="fQ2BLNwEKDSht-w5h9F5-10" value="Delete Env" style="edgeLabel;html=1;align=center;verticalAlign=middle;resizable=0;points=[];" vertex="1" connectable="0" parent="fQ2BLNwEKDSht-w5h9F5-8">
          <mxGeometry x="-0.1034" y="1" relative="1" as="geometry">
            <mxPoint as="offset" />
          </mxGeometry>
        </mxCell>
        <mxCell id="fQ2BLNwEKDSht-w5h9F5-6" value="Clean up Tekton Pipeline" style="ellipse;whiteSpace=wrap;html=1;fillColor=#647687;fontColor=#ffffff;strokeColor=#314354;" vertex="1" parent="1">
          <mxGeometry x="195" y="620" width="105" height="70" as="geometry" />
        </mxCell>
        <mxCell id="fQ2BLNwEKDSht-w5h9F5-7" style="edgeStyle=orthogonalEdgeStyle;rounded=0;orthogonalLoop=1;jettySize=auto;html=1;exitX=0.5;exitY=1;exitDx=0;exitDy=0;entryX=0.533;entryY=-0.086;entryDx=0;entryDy=0;entryPerimeter=0;" edge="1" parent="1" source="lPkhHcRG2K9ddC0IiGHr-1" target="fQ2BLNwEKDSht-w5h9F5-6">
          <mxGeometry relative="1" as="geometry" />
        </mxCell>
        <mxCell id="fQ2BLNwEKDSht-w5h9F5-11" value="On Approve&amp;nbsp;&lt;div&gt;Merge Request&lt;/div&gt;" style="edgeLabel;html=1;align=center;verticalAlign=middle;resizable=0;points=[];" vertex="1" connectable="0" parent="fQ2BLNwEKDSht-w5h9F5-7">
          <mxGeometry x="-0.0234" y="-2" relative="1" as="geometry">
            <mxPoint x="2" y="17" as="offset" />
          </mxGeometry>
        </mxCell>
        <mxCell id="fQ2BLNwEKDSht-w5h9F5-20" style="edgeStyle=orthogonalEdgeStyle;rounded=0;orthogonalLoop=1;jettySize=auto;html=1;entryX=0;entryY=0.5;entryDx=0;entryDy=0;" edge="1" parent="1" source="fQ2BLNwEKDSht-w5h9F5-12" target="lPkhHcRG2K9ddC0IiGHr-3">
          <mxGeometry relative="1" as="geometry" />
        </mxCell>
        <mxCell id="fQ2BLNwEKDSht-w5h9F5-12" value="Developer" style="shape=umlActor;verticalLabelPosition=bottom;verticalAlign=top;html=1;outlineConnect=0;" vertex="1" parent="1">
          <mxGeometry x="80" y="180" width="20" height="40" as="geometry" />
        </mxCell>
        <mxCell id="fQ2BLNwEKDSht-w5h9F5-14" value="Reviewer" style="shape=umlActor;verticalLabelPosition=bottom;verticalAlign=top;html=1;outlineConnect=0;" vertex="1" parent="1">
          <mxGeometry x="460" y="400" width="20" height="40" as="geometry" />
        </mxCell>
      </root>
    </mxGraphModel>
  </diagram>
</mxfile>
